<svg xmlns="http://www.w3.org/2000/svg" width="27" height="32.441" viewBox="0 0 27 32.441">
  <path id="Union_2" data-name="Union 2" d="M8.951,32.441C4.052,32.416,0,22.559,0,17.539c0-8.2,6.24-9.992,8.646-9.992a10.079,10.079,0,0,1,3.263.791,7.335,7.335,0,0,0,1.862.525,5.756,5.756,0,0,0,1.336-.428,10.884,10.884,0,0,1,4.029-.961h.009a8.3,8.3,0,0,1,6.908,3.439l.5.746-.725.541a6,6,0,0,0-2.928,4.959,5.6,5.6,0,0,0,3.17,5.176c.454.268.924.545.924,1.152,0,.4-3.209,8.906-7.871,8.906a6.385,6.385,0,0,1-2.656-.637,5.471,5.471,0,0,0-2.367-.561,6.19,6.19,0,0,0-1.873.5,9.209,9.209,0,0,1-3.248.746ZM13.5,7.119C12.98,3.676,16.622,0,19.629,0c.119,4.188-2.823,7.129-5.854,7.129C13.681,7.129,13.589,7.125,13.5,7.119Z" fill="#fff"/>
</svg>
