<svg xmlns="http://www.w3.org/2000/svg" width="40" height="36.33" viewBox="0 0 40 36.33">
  <g id="cart" transform="translate(-5 -6)">
    <path id="Tracé_1057" data-name="Tracé 1057" d="M24.427,28.855a3.427,3.427,0,1,1,3.427-3.427A3.427,3.427,0,0,1,24.427,28.855Zm0-3.427Zm0,0Zm0,0Zm0,0Zm0,0Zm0,0Zm0,0Zm0,0Z" transform="translate(13.684 13.476)" fill="#fff"/>
    <path id="Tracé_1058" data-name="Tracé 1058" d="M14.427,28.855a3.427,3.427,0,1,1,3.427-3.427A3.427,3.427,0,0,1,14.427,28.855Zm0-3.427Zm0,0Zm0,0Zm0,0Zm0,0Zm0,0Zm0,0Zm0,0Z" transform="translate(5.036 13.476)" fill="#fff"/>
    <path id="Tracé_1059" data-name="Tracé 1059" d="M44.564,12.27a1.8,1.8,0,0,0-1.417-.688H15.5l-.327-1.358A5.476,5.476,0,0,0,9.886,6H6.817a1.861,1.861,0,0,0,0,3.721h3.07A1.824,1.824,0,0,1,11.7,11.135l.563,2.754,2.361,10.866a9.133,9.133,0,0,0,8.919,7.294H33.683a9.134,9.134,0,0,0,8.865-7.294l2.416-10.9a1.893,1.893,0,0,0-.4-1.582Z" transform="translate(0 0)" fill="#fff"/>
  </g>
</svg>
