<svg xmlns="http://www.w3.org/2000/svg" width="42.999" height="39.09" viewBox="0 0 42.999 39.09">
  <g id="Layer_6" data-name="Layer 6" transform="translate(-5 -6)">
    <path id="Tracé_1302" data-name="Tracé 1302" d="M32.6,13.988a2,2,0,0,0,1.9-2.636A7.988,7.988,0,0,0,26.967,6H12.988A7.988,7.988,0,0,0,5,13.988V29.963a3.981,3.981,0,0,0,7.169,2.4,5.831,5.831,0,0,1,1.777-1.578,2,2,0,0,0,1.018-1.737V25.97A11.982,11.982,0,0,1,26.947,13.988Z" fill="#fff"/>
    <path id="Tracé_1303" data-name="Tracé 1303" d="M33.967,12H19.988A7.988,7.988,0,0,0,12,19.988v7.988a7.988,7.988,0,0,0,7.988,7.988h9.985a5.991,5.991,0,0,1,4.793,2.4,3.994,3.994,0,0,0,3.2,1.6,4.094,4.094,0,0,0,1.3-.2,3.994,3.994,0,0,0,2.7-3.794V19.988A7.988,7.988,0,0,0,33.967,12Z" transform="translate(6.044 5.132)" fill="#fff"/>
  </g>
</svg>
