<svg xmlns="http://www.w3.org/2000/svg" xmlns:xlink="http://www.w3.org/1999/xlink" width="40" height="40" viewBox="0 0 40 40">
  <defs>
    <clipPath id="clip-path">
      <rect id="Rectangle_844" data-name="Rectangle 844" width="40" height="40" transform="translate(678 1230)" fill="#fff"/>
    </clipPath>
  </defs>
  <g id="Groupe_de_masques_36" data-name="Groupe de masques 36" transform="translate(-678 -1230)" clip-path="url(#clip-path)">
    <g id="Layer_5" data-name="Layer 5" transform="translate(678 1231.818)">
      <path id="Tracé_1300" data-name="Tracé 1300" d="M21.364,46.727a3.782,3.782,0,0,1-1.527-.327,3.636,3.636,0,0,1-2.109-3.309V39.455a9.091,9.091,0,0,1-9.091-9.091V19.455a9.091,9.091,0,0,1,9.091-9.091H39.545a9.091,9.091,0,0,1,9.091,9.091V30.364a9.091,9.091,0,0,1-9.091,9.091H31.036l-7.273,6.364A3.636,3.636,0,0,1,21.364,46.727ZM17.727,14a5.455,5.455,0,0,0-5.455,5.455V30.364a5.455,5.455,0,0,0,5.455,5.455h1.818a1.818,1.818,0,0,1,1.818,1.818v5.455l7.8-6.818a1.818,1.818,0,0,1,1.291-.455h9.091A5.455,5.455,0,0,0,45,30.364V19.455A5.455,5.455,0,0,0,39.545,14Z" transform="translate(-8.636 -10.364)" fill="#e0e4eb"/>
    </g>
  </g>
</svg>
