<svg xmlns="http://www.w3.org/2000/svg" width="119.079" height="102.73" viewBox="0 0 119.079 102.73">
  <g id="Groupe_869" data-name="Groupe 869" transform="translate(-469.041 -955.073)">
    <g id="Groupe_596" data-name="Groupe 596" transform="translate(473.335 960.149)">
      <rect id="Rectangle_221" data-name="Rectangle 221" width="7.674" height="6.364" transform="translate(15.953 5.437)" fill="#ce181e"/>
      <rect id="Rectangle_222" data-name="Rectangle 222" width="6.003" height="4.977" transform="translate(1.03)" fill="#ce181e"/>
      <rect id="Rectangle_223" data-name="Rectangle 223" width="9.134" height="7.574" transform="translate(0 20.056)" fill="#ce181e"/>
      <rect id="Rectangle_224" data-name="Rectangle 224" width="1.455" height="1.205" transform="translate(16.617 17.11)" fill="#ce181e"/>
    </g>
    <g id="Groupe_591" data-name="Groupe 591" transform="translate(573.737 995.965)">
      <path id="Tracé_1232" data-name="Tracé 1232" d="M351.71,35.539V29.882h5.658a.731.731,0,0,0,0-1.426H351.71V22.8a.731.731,0,0,0-1.426,0v5.658h-5.658a.731.731,0,0,0,0,1.426h5.658v5.658a.731.731,0,0,0,1.426,0Z" transform="translate(-344.056 -22.228)" fill="#ffc20e" stroke="#ffc20e" stroke-miterlimit="10" stroke-width="1" fillRule="evenodd"/>
    </g>
    <g id="Groupe_868" data-name="Groupe 868" transform="translate(469.041 955.073)">
      <path id="Tracé_1259" data-name="Tracé 1259" d="M643.121,389.559c0,9.947,14.771,27.415,18.01,18.01,3.967-11.514,12.427-18.813,18.011-18.01,9.846,1.415-8.064-18.01-18.01-18.01a18.01,18.01,0,0,0-18.01,18.01Z" transform="translate(-577.309 -309.915)" fill="#313134"/>
      <path id="Tracé_1260" data-name="Tracé 1260" d="M637.1,299.995c-2.336,9.669,8.063,18.01,18.01,18.01a18.01,18.01,0,0,0,18.01-18.01c0-9.947-13.407-9.193-18.01-18.01C649.837,271.89,642.118,279.211,637.1,299.995Z" transform="translate(-575.068 -277.495)" fill="#313134"/>
      <path id="Tracé_1262" data-name="Tracé 1262" d="M505.031,389.559c-8.405-3.634,6.193,14.988,18.01,18.01,9.637,2.465,18.01-8.063,18.01-18.01a18.01,18.01,0,0,0-18.01-18.011C513.095,371.548,514.162,393.506,505.031,389.559Z" transform="translate(-502.54 -324.988)" fill="#313134"/>
      <path id="Tracé_1267" data-name="Tracé 1267" d="M652.632,299.621H628.54a3.813,3.813,0,0,0-3.813,3.813v24.091a3.813,3.813,0,0,0,3.813,3.813h24.091a3.813,3.813,0,0,0,3.813-3.813V303.434A3.812,3.812,0,0,0,652.632,299.621Zm-4.524,8.133h-2.763c-1.886,0-2.254.893-2.254,2.212v2.8h4.5l-.584,4.39h-3.923V328.6a13.583,13.583,0,0,1-5.075-.012V317.153h-3.6v-4.39h3.664v-3.247c0-3.881,2.7-6,6.168-6,1.669,0,3.455.125,3.864.184Z" transform="translate(-571.05 -285.296)" fill="#02020f"/>
      <path id="Tracé_1273" data-name="Tracé 1273" d="M631.99,417.153a22.851,22.851,0,0,1-12.48-3.7l-1.869-1.215,2.215.246c.58.065,1.205.1,1.857.112a15.521,15.521,0,0,0,8.419-2.474,8.766,8.766,0,0,1-6.468-5.82l-.277-.855.882.173a7.372,7.372,0,0,0,1.215.137,8.572,8.572,0,0,1-4.65-7.6v-.905l.788.348a7.258,7.258,0,0,0,1.476.628,8.69,8.69,0,0,1-1.042-10.121l.385-.664.483.6a22.07,22.07,0,0,0,14.107,7.985,1.063,1.063,0,0,0,.853-.255,1.091,1.091,0,0,0,.375-.824,8.509,8.509,0,0,1,14.538-6.07,15.689,15.689,0,0,0,4.635-1.82l1.214-.719-.442,1.339a8.609,8.609,0,0,1-2.01,3.312,15.817,15.817,0,0,0,2.368-.822l1.644-.723-.991,1.5a16.864,16.864,0,0,1-3.878,4.141v.764c0,11.458-8.716,23.31-23.3,23.31Z" transform="translate(-568.326 -314.423)" fill="#02020f"/>
    </g>
  </g>
</svg>
