<svg xmlns="http://www.w3.org/2000/svg" width="43" height="39.091" viewBox="0 0 43 39.091">
  <g id="Home" transform="translate(-5 -6)">
    <path id="solid" d="M44.873,18.314,30.018,7.173a5.864,5.864,0,0,0-7.036,0L8.127,18.314A7.818,7.818,0,0,0,5,24.568v12.7a7.818,7.818,0,0,0,7.818,7.818h5.864a1.955,1.955,0,0,0,1.955-1.955V33.364a1.955,1.955,0,0,1,1.955-1.955h7.818a1.955,1.955,0,0,1,1.955,1.955v9.773a1.955,1.955,0,0,0,1.955,1.955h5.864A7.818,7.818,0,0,0,48,37.273v-12.7A7.818,7.818,0,0,0,44.873,18.314Z" transform="translate(0)" fill="#fff"/>
  </g>
</svg>
