<svg xmlns="http://www.w3.org/2000/svg" className="h-5 w-5 text-yellow" viewBox="0 0 123.369 120.202">
  <g id="icon_points" data-name="icon points" transform="translate(-135 -703)">
    <g id="Groupe_484" data-name="Groupe 484">
      <g id="Ellipse_1" data-name="Ellipse 1" transform="translate(135 703)" fill="#02020f" stroke="#242529" strokeWidth="3.5">
        <ellipse cx="61.684" cy="60.101" rx="61.684" ry="60.101" stroke="none"/>
        <ellipse cx="61.684" cy="60.101" rx="59.934" ry="58.351" fill="none"/>
      </g>
      <g id="logo" transform="translate(142 715)">
        <path id="Tracé_1074" data-name="Tracé 1074" d="M211.85,119.22h0" transform="translate(-117.674 -66.207)" fill="#ffc20e"/>
        <path id="Tracé_1075" data-name="Tracé 1075" d="M133.6,108.927c-1.621.94-3.22,1.741-4.747,2.489l-1.136.557-.245.12-.062.031h-.031l-.151.071a5.3,5.3,0,0,1-.761.281l-.289.076-.851.4-.307.143-.3.134-.6.267-.356.16c-2.561,19.371-17.9,33.777-38.088,33.777a38.122,38.122,0,0,1-24-8.194l-.766.891c-1.861,2.2-3.705,4.418-5.575,6.68a51.8,51.8,0,0,0,30.34,9.628c28.1,0,50.236-21.611,50.236-48.54v-.414c-.766.521-1.541,1-2.311,1.447" transform="translate(-30.861 -59.759)" fill="#ffc20e"/>
        <path id="Tracé_1076" data-name="Tracé 1076" d="M92.247,50.628h0M90.428,41.59l.111-.049-.071.031-.076.036h-.058ZM3.785,37.033a.365.365,0,0,1,.111,0h.111l-.182.049H3.794M54.6,8.994A37.928,37.928,0,0,1,87.409,26.981h-.058l-1.57-.053-1.6-.049c-1.063-.027-2.126-.049-3.188-.058H77.813q-3.179,0-6.354.084c-2.112.062-4.224.138-6.328.253s-4.207.236-6.3.4l-3.153.249-3.144.285c-8.391.8-16.751,1.872-25.035,3.325-2.668.471-5.372.987-8.048,1.529A37.447,37.447,0,0,1,54.6,9.012m46.205,28.1h0c.053.053.053.067,0,0m8.7-1.392a1.285,1.285,0,0,0-.036-.373l-.053-.351c-.022-.12-.04-.227-.071-.351a7.01,7.01,0,0,0-.507-1.472,7.6,7.6,0,0,0-.725-1.218,9.278,9.278,0,0,0-1.552-1.636,5.264,5.264,0,0,0-.591-.445c-.191-.12-.5-.36-.716-.511l-.076-.053a4.136,4.136,0,0,0-1.236-.569c-1.152-.32-2.308-.578-3.46-.787C92.593,11.43,75.332,0,54.908,0,31.234,0,11.593,15.36,6.035,36.153H5.986l-3.015.925-.351.1a3.722,3.722,0,0,0-2.01,1.5,3.592,3.592,0,0,0-.574,1.547,3.663,3.663,0,0,0,3.206,4.081,4.2,4.2,0,0,0,.765.031,4.077,4.077,0,0,0,.467-.04h.142l.236-.04,5.163.445,6.6.547h.16l13.518,1.129a1.953,1.953,0,0,0,.889-.147,1.885,1.885,0,0,0-.374-3.6h0l-1.97-.4-4.647-.92h-.08q2.455-.387,4.891-.76c8.128-1.209,16.261-2.285,24.425-3.063l3.059-.28,3.068-.253c2.05-.164,4.1-.329,6.136-.471,4.086-.285,8.169-.516,12.237-.631l1.525-.04,1.525-.027H85.55l1.547.036,3.113.044c.409,0,.814,0,1.214.027,1.6.044,3.157.124,4.651.285.938.1,1.854.222,2.744.391l.6.124c-.093.076-.182.151-.28.222a22.9,22.9,0,0,1-3.331,2.13c-1,.538-2.081,1.049-3.215,1.569l-.778.351-.8.36-.169.036c-.142.036-.289.076-.418.12l-.2.067-.173.071h-.031l-.111.044-.116.053-.062.027-.129.053-1,.445-.249.107-.267.111-.485.218c-.7.293-1.414.574-2.121.858l-1.072.409-.538.2-.538.2C81.9,44.884,80.45,45.4,78.991,45.9s-2.939.978-4.447,1.458-2.979.938-4.487,1.4l-4.522,1.365-.56.169-.56.16-1.116.32-2.263.64c-1.512.445-3.024.836-4.536,1.24q-3.215.862-6.434,1.64c-.956.231-1.912.445-2.868.685,1.014-1.058,2.041-2.1,3.113-3.112h0a4.726,4.726,0,0,0,.654-.791,4.845,4.845,0,0,0-1.4-6.789,4.99,4.99,0,0,0-6.87,1.383c-.947,1.414-1.961,2.8-2.988,4.161S37.664,52.46,36.6,53.793s-2.157,2.667-3.259,3.948c-.551.654-1.107,1.3-1.667,1.943l-1.685,1.929Q26.6,65.45,23.074,69.14l-.671.689A40.526,40.526,0,0,1,16.5,48.49c0-.338,0-.671,0-1l-1.659-.138-7.115-.591-3.251-.28c0,.573-.036,1.143-.036,1.721A47.159,47.159,0,0,0,14.666,77.6,4.85,4.85,0,0,0,15.9,83.66a4.986,4.986,0,0,0,5.211.662,4.891,4.891,0,0,0,1.752-1.334l.027-.031C24.6,80.9,26.28,78.881,27.957,76.88L29.6,74.924q3.344-3.97,6.706-7.878l.889-1.014a4.937,4.937,0,0,0,2.9.369c6.412-1.125,12.749-2.583,18.992-4.241,1.561-.418,3.113-.84,4.669-1.28l2.321-.667,1.174-.342.587-.169.578-.178,2.3-.7,2.3-.716q2.294-.72,4.607-1.476c3.077-1.014,6.159-2.107,9.218-3.317l.574-.227L88,52.851l1.143-.471c.76-.329,1.521-.645,2.277-.987l.565-.253.285-.129.293-.133.676-.32.133-.058.271-.071a5.843,5.843,0,0,0,.725-.267l.142-.067h.031l.058-.031.236-.116,1.076-.525c1.454-.716,2.975-1.476,4.513-2.365A32.4,32.4,0,0,0,104.866,44l.12-.1c.369-.307.729-.627,1.085-.96.173-.169.351-.333.525-.507l.258-.262.289-.3.147-.156.2-.24c.071-.084.125-.151.178-.222s.111-.138.165-.213a9.88,9.88,0,0,0,.667-.974,9.072,9.072,0,0,0,.542-1.143,8.062,8.062,0,0,0,.378-1.334,7.235,7.235,0,0,0,.125-1.494,2.182,2.182,0,0,0-.022-.382" transform="translate(-0.009)" fill="#ffc20e"/>
      </g>
    </g>
  </g>
</svg>
