<svg xmlns="http://www.w3.org/2000/svg" className="h-5 w-5 text-yellow" viewBox="0 0 21.579 20">
  <path id="rating" d="M21.533,7.574a.994.994,0,0,0-.8-.644L14.656,5.864a.22.22,0,0,1-.06-.042L11.667.543a.982.982,0,0,0-1.756,0L6.987,5.818c-.013.014-.046.039-.039.039L.847,6.93a1,1,0,0,0-.8.642.954.954,0,0,0,.259.98l4.3,4.376-.833,5.961A.942.942,0,0,0,4.705,20a1.14,1.14,0,0,0,.483-.111l5.561-2.6c.02,0,.062,0,.058-.009l5.586,2.611a1.027,1.027,0,0,0,1.037-.063.958.958,0,0,0,.382-.939l-.831-5.936c0-.017.013-.055.009-.055h0l4.284-4.347a.95.95,0,0,0,.26-.977Z" fill="#FFC20E"/>
</svg>
