<svg xmlns="http://www.w3.org/2000/svg" width="51.192" height="49.878" viewBox="0 0 51.192 49.878">
  <g id="logo_points" data-name="logo points" transform="translate(-350.063 -697.116)">
    <g id="Tracé_1274" data-name="Tracé 1274" transform="translate(350.063 697.116)" fill="#02020f">
      <path d="M 25.59595489501953 48.87795639038086 C 22.27189445495605 48.87795639038086 19.04801559448242 48.24395751953125 16.01387405395508 46.99356460571289 C 13.08439445495605 45.78629684448242 10.45365524291992 44.05819702148438 8.194745063781738 41.85725784301758 C 5.937634944915771 39.65808486938477 4.165904998779297 37.09801483154297 2.928754806518555 34.24814605712891 C 1.648934841156006 31.29996681213379 1.000004887580872 28.16790580749512 1.000004887580872 24.9389762878418 C 1.000004887580872 21.71004676818848 1.648934841156006 18.5779972076416 2.928754806518555 15.62980651855469 C 4.165904998779297 12.77994632720947 5.937634944915771 10.21986675262451 8.194745063781738 8.020696640014648 C 10.45365524291992 5.819756507873535 13.08439445495605 4.09165620803833 16.01387405395508 2.884396314620972 C 19.04801559448242 1.633996248245239 22.27189445495605 0.9999963045120239 25.59595489501953 0.9999963045120239 C 28.92001533508301 0.9999963045120239 32.14389419555664 1.633996248245239 35.17803573608398 2.884396314620972 C 38.10751342773438 4.09165620803833 40.73825454711914 5.819756507873535 42.99717330932617 8.020696640014648 C 45.2542839050293 10.21986675262451 47.02601623535156 12.77994632720947 48.26315307617188 15.62980651855469 C 49.54298400878906 18.5779972076416 50.19191360473633 21.71004676818848 50.19191360473633 24.9389762878418 C 50.19191360473633 28.16790580749512 49.54298400878906 31.29996681213379 48.26315307617188 34.24814605712891 C 47.02601623535156 37.09801483154297 45.2542839050293 39.65808486938477 42.99717330932617 41.85725784301758 C 40.73825454711914 44.05819702148438 38.10751342773438 45.78629684448242 35.17803573608398 46.99356460571289 C 32.14389419555664 48.24395751953125 28.92001533508301 48.87795639038086 25.59595489501953 48.87795639038086 Z" stroke="none"/>
      <path d="M 25.59595489501953 1.999996185302734 C 22.40326499938965 1.999996185302734 19.30757522583008 2.608615875244141 16.39489364624023 3.808956146240234 C 13.5838737487793 4.967395782470703 11.05973434448242 6.625415802001953 8.892593383789062 8.736934661865234 C 6.72906494140625 10.84492492675781 5.031166076660156 13.29799652099609 3.846046447753906 16.02800750732422 C 2.62109375 18.84977722167969 1.999996185302734 21.84786605834961 1.999996185302734 24.9389762878418 C 1.999996185302734 28.03008651733398 2.62109375 31.02816581726074 3.846046447753906 33.84993743896484 C 5.031166076660156 36.5799560546875 6.72906494140625 39.03302764892578 8.892593383789062 41.14101409912109 C 11.05973434448242 43.25253677368164 13.5838737487793 44.91054534912109 16.39489364624023 46.06899642944336 C 19.30757522583008 47.26933670043945 22.40326499938965 47.87795639038086 25.59595489501953 47.87795639038086 C 28.78864479064941 47.87795639038086 31.88433456420898 47.26933670043945 34.79700469970703 46.06899642944336 C 37.60802459716797 44.91054534912109 40.13216400146484 43.25253677368164 42.29931640625 41.14101409912109 C 44.46283340454102 39.03302764892578 46.16073608398438 36.5799560546875 47.34585571289062 33.84993743896484 C 48.57080459594727 31.02816581726074 49.1919059753418 28.03008651733398 49.1919059753418 24.9389762878418 C 49.1919059753418 21.84786605834961 48.57080459594727 18.84977722167969 47.34585571289062 16.02800750732422 C 46.16073608398438 13.29799652099609 44.46283340454102 10.84492492675781 42.29931640625 8.736934661865234 C 40.13216400146484 6.625408172607422 37.60802459716797 4.967395782470703 34.79701232910156 3.808956146240234 C 31.88433456420898 2.608615875244141 28.78864479064941 1.999996185302734 25.59595489501953 1.999996185302734 M 25.59595489501953 -3.814697265625e-06 C 39.73220443725586 -3.814697265625e-06 51.1919059753418 11.16555786132812 51.1919059753418 24.9389762878418 C 51.1919059753418 38.71238708496094 39.73220443725586 49.87795639038086 25.59595489501953 49.87795639038086 C 11.4597053527832 49.87795639038086 -3.814697265625e-06 38.71238708496094 -3.814697265625e-06 24.9389762878418 C -3.814697265625e-06 11.16555786132812 11.4597053527832 -3.814697265625e-06 25.59595489501953 -3.814697265625e-06 Z" stroke="none" fill="#242529"/>
    </g>
    <g id="logo" transform="translate(352.281 701.552)">
      <path id="Tracé_1074" data-name="Tracé 1074" d="M211.85,119.22h0" transform="translate(-171.489 -96.5)" fill="#939393"/>
      <path id="Tracé_1075" data-name="Tracé 1075" d="M88.88,108.1c-.695.4-1.38.746-2.034,1.067l-.487.239-.1.052-.027.013h-.013l-.065.031a2.271,2.271,0,0,1-.326.12l-.124.032-.365.17-.132.061-.128.057-.256.115-.153.069A16.546,16.546,0,0,1,58.058,121.09l-.328.382c-.8.945-1.588,1.893-2.389,2.863a22.2,22.2,0,0,0,13,4.126c12.043,0,21.53-9.262,21.53-20.8v-.177c-.328.223-.66.429-.991.62" transform="translate(-44.849 -87.028)" fill="#939393"/>
      <path id="Tracé_1076" data-name="Tracé 1076" d="M39.54,21.7h0m-.779-3.874.048-.021-.03.013-.032.015H38.72ZM1.627,15.871a.156.156,0,0,1,.048,0h.048l-.078.021H1.631M23.406,3.854a16.255,16.255,0,0,1,14.06,7.709h-.025l-.673-.023-.684-.021c-.455-.011-.911-.021-1.366-.025H33.354q-1.363,0-2.723.036c-.905.027-1.81.059-2.712.109s-1.8.1-2.7.17l-1.351.107-1.347.122c-3.6.343-7.179.8-10.729,1.425-1.143.2-2.3.423-3.449.655A16.049,16.049,0,0,1,23.406,3.862M43.208,15.9h0c.023.023.023.029,0,0m3.728-.6a.551.551,0,0,0-.015-.16L46.9,15c-.01-.051-.017-.1-.03-.151a3,3,0,0,0-.217-.631,3.256,3.256,0,0,0-.311-.522,3.976,3.976,0,0,0-.665-.7,2.256,2.256,0,0,0-.253-.191c-.082-.051-.213-.154-.307-.219l-.032-.023a1.773,1.773,0,0,0-.53-.244c-.494-.137-.989-.248-1.483-.337A21.431,21.431,0,0,0,23.538,0,21.4,21.4,0,0,0,2.592,15.494H2.571l-1.292.4-.151.044a1.6,1.6,0,0,0-.861.642,1.539,1.539,0,0,0-.246.663,1.57,1.57,0,0,0,1.374,1.749A1.8,1.8,0,0,0,1.723,19a1.748,1.748,0,0,0,.2-.017h.061l.1-.017,2.213.191,2.828.234h.069l5.793.484a.837.837,0,0,0,.381-.063.808.808,0,0,0-.16-1.541h0l-.844-.171-1.991-.394h-.034q1.052-.166,2.1-.326c3.484-.518,6.969-.979,10.468-1.313l1.311-.12,1.315-.109c.879-.07,1.755-.141,2.63-.2,1.751-.122,3.5-.221,5.245-.271l.654-.017.654-.011H36.67l.663.015,1.334.019c.175,0,.349,0,.52.011.686.019,1.353.053,1.993.122.4.042.795.1,1.176.168l.257.053c-.04.032-.078.065-.12.1a9.811,9.811,0,0,1-1.427.913c-.431.231-.892.45-1.378.673l-.334.151-.345.154-.072.015c-.061.015-.124.032-.179.051l-.084.029-.074.03h-.013l-.048.019-.05.023-.027.011-.055.023-.429.191-.107.046-.114.048-.208.093c-.3.126-.606.246-.909.368l-.459.175-.231.088-.231.086c-.614.229-1.237.45-1.862.665s-1.26.419-1.906.625-1.277.4-1.923.6l-1.938.585-.24.072-.24.069-.478.137-.97.274c-.648.191-1.3.358-1.944.532q-1.378.37-2.758.7c-.41.1-.819.191-1.229.293.435-.453.875-.9,1.334-1.334h0a2.025,2.025,0,0,0,.28-.339,2.077,2.077,0,0,0-.6-2.909,2.138,2.138,0,0,0-2.944.593c-.406.606-.84,1.2-1.281,1.783s-.877,1.128-1.334,1.7-.924,1.143-1.4,1.692c-.236.28-.475.556-.715.833l-.722.827q-1.45,1.644-2.961,3.226l-.288.3a17.368,17.368,0,0,1-2.531-9.146c0-.145,0-.288,0-.431l-.711-.059-3.049-.253-1.393-.12c0,.246-.015.49-.015.737a20.211,20.211,0,0,0,4.383,12.6,2.078,2.078,0,0,0,.53,2.6,2.137,2.137,0,0,0,2.234.284,2.1,2.1,0,0,0,.751-.572l.011-.013c.732-.882,1.452-1.747,2.171-2.6l.705-.838q1.433-1.7,2.874-3.376l.381-.434a2.116,2.116,0,0,0,1.244.158c2.748-.482,5.464-1.107,8.139-1.818.669-.179,1.334-.36,2-.549l.995-.286.5-.147.252-.072.248-.076.987-.3L31.3,24.9q.983-.309,1.974-.633c1.319-.434,2.639-.9,3.951-1.421l.246-.1.246-.1.49-.2c.326-.141.652-.276.976-.423l.242-.109.122-.055.126-.057.29-.137.057-.025.116-.03a2.5,2.5,0,0,0,.311-.114l.061-.029h.013l.025-.013.1-.05.461-.225c.623-.307,1.275-.633,1.934-1.014a13.884,13.884,0,0,0,1.906-1.311L45,18.815c.158-.131.313-.269.465-.412.074-.072.151-.143.225-.217l.111-.112.124-.13.063-.067.088-.1c.03-.036.053-.065.076-.1s.048-.059.071-.091a4.234,4.234,0,0,0,.286-.417,3.887,3.887,0,0,0,.233-.49,3.456,3.456,0,0,0,.162-.572,3.1,3.1,0,0,0,.053-.64.935.935,0,0,0-.01-.164" transform="translate(-0.009)" fill="#939393"/>
    </g>
  </g>
</svg>
