<svg xmlns="http://www.w3.org/2000/svg" xmlns:xlink="http://www.w3.org/1999/xlink" width="38" height="38" viewBox="0 0 38 38">
  <defs>
    <clipPath id="clip-path">
      <rect id="Rectangle_836" data-name="Rectangle 836" width="38" height="38" transform="translate(678 406)" fill="#fff"/>
    </clipPath>
  </defs>
  <g id="Groupe_de_masques_32" data-name="Groupe de masques 32" transform="translate(-678 -406)" clip-path="url(#clip-path)">
    <g id="Layer_6" data-name="Layer 6" transform="translate(669.364 397.364)">
      <path id="Tracé_1292" data-name="Tracé 1292" d="M12.091,34.545a3.423,3.423,0,0,1-3.455-3.455V17.273a6.909,6.909,0,0,1,6.909-6.909H27.636a6.909,6.909,0,0,1,6.512,4.629A1.731,1.731,0,0,1,30.866,16.1a3.455,3.455,0,0,0-3.23-2.28H15.545a3.455,3.455,0,0,0-3.455,3.455V31.091a8.291,8.291,0,0,1,2.608-2.3A1.733,1.733,0,1,1,16.426,31.8a5.044,5.044,0,0,0-1.537,1.365A3.455,3.455,0,0,1,12.091,34.545Z" fill="#e0e4eb"/>
      <path id="Tracé_1293" data-name="Tracé 1293" d="M43.182,44.909a3.455,3.455,0,0,1-2.729-1.382,5.182,5.182,0,0,0-4.18-2.073H27.636a6.909,6.909,0,0,1-6.909-6.909V27.636a6.909,6.909,0,0,1,6.909-6.909H39.727a6.909,6.909,0,0,1,6.909,6.909V41.455a3.455,3.455,0,0,1-2.366,3.282A3.541,3.541,0,0,1,43.182,44.909ZM27.636,24.182a3.455,3.455,0,0,0-3.455,3.455v6.909A3.455,3.455,0,0,0,27.636,38h8.636a8.636,8.636,0,0,1,6.909,3.455V27.636a3.455,3.455,0,0,0-3.455-3.455Z" fill="#e0e4eb"/>
    </g>
  </g>
</svg>
