<svg xmlns="http://www.w3.org/2000/svg" width="21.077" height="22.588" viewBox="0 0 21.077 22.588">
  <g id="package" transform="translate(1.038 1.018)">
    <path id="Shape" d="M10.346.2l7.6,3.818A1.91,1.91,0,0,1,19,5.726v9.1a1.91,1.91,0,0,1-1.054,1.709l-7.6,3.818a1.892,1.892,0,0,1-1.7,0l-7.6-3.818A1.91,1.91,0,0,1,0,14.814V5.726A1.91,1.91,0,0,1,1.055,4.018L8.655.2A1.892,1.892,0,0,1,10.346.2Z" transform="translate(0)" fill="none" stroke="#313134" stroke-linecap="round" stroke-linejoin="round" stroke-miterlimit="10" stroke-width="2"/>
    <path id="Shape-2" data-name="Shape" d="M0,0,9.2,4.62,18.392,0" transform="translate(0.304 4.695)" fill="none" stroke="#313134" stroke-linecap="round" stroke-linejoin="round" stroke-miterlimit="10" stroke-width="2"/>
    <path id="Shape-3" data-name="Shape" d="M0,11.225V0" transform="translate(9.5 9.315)" fill="none" stroke="#313134" stroke-linecap="round" stroke-linejoin="round" stroke-miterlimit="10" stroke-width="2"/>
    <path id="Shape-4" data-name="Shape" d="M0,0,9.5,4.773" transform="translate(4.75 2.156)" fill="none" stroke="#313134" stroke-linecap="round" stroke-linejoin="round" stroke-miterlimit="10" stroke-width="2"/>
  </g>
</svg>
