<svg xmlns="http://www.w3.org/2000/svg" width="39.104" height="39.09" viewBox="0 0 39.104 39.09">
  <g id="Layer_6" data-name="Layer 6" transform="translate(-4.995 -5.029)">
    <path id="Tracé_1301" data-name="Tracé 1301" d="M42.544,14.407,34.715,6.579a5.6,5.6,0,0,0-7.739,0L24.361,9.194A5.337,5.337,0,0,0,22.8,13.055a5.48,5.48,0,0,0,.178,1.334l-6.209,1.245a9.18,9.18,0,0,0-7.116,6.654L5.129,39.564a3.451,3.451,0,0,0,0,1.9l9.7-9.714a4.661,4.661,0,0,1-.338-1.779,4.537,4.537,0,0,1,1.352-3.238,4.579,4.579,0,1,1,3.238,7.81,4.786,4.786,0,0,1-1.779-.32l-9.625,9.75a3.363,3.363,0,0,0,.89.142,3.434,3.434,0,0,0,.943-.125l17.275-4.537a9.234,9.234,0,0,0,6.654-7.116l1.245-6.191a5.48,5.48,0,0,0,1.334.178,5.337,5.337,0,0,0,3.861-1.6l2.615-2.615a5.48,5.48,0,0,0,.053-7.7Z" fill="#fff"/>
  </g>
</svg>
