<svg xmlns="http://www.w3.org/2000/svg" width="25.091" height="24.447" viewBox="0 0 25.091 24.447">
  <g id="Groupe_522" data-name="Groupe 522" transform="translate(-420.4 -977)">
    <g id="Ellipse_1" data-name="Ellipse 1" transform="translate(420.4 977)" fill="#02020f" stroke="#242529" stroke-width="1.2">
      <ellipse cx="12.545" cy="12.223" rx="12.545" ry="12.223" stroke="none"/>
      <ellipse cx="12.545" cy="12.223" rx="11.945" ry="11.623" fill="none"/>
    </g>
    <g id="logo" transform="translate(421.488 979.175)">
      <path id="Tracé_1074" data-name="Tracé 1074" d="M211.85,119.22h0" transform="translate(-192.068 -108.084)" fill="#e0e4eb"/>
      <path id="Tracé_1075" data-name="Tracé 1075" d="M71.779,107.784c-.34.2-.676.366-1,.523l-.239.117-.051.025-.013.007h-.007l-.032.015a1.114,1.114,0,0,1-.16.059l-.061.016-.179.083-.065.03-.063.028-.125.056-.075.034a8.11,8.11,0,0,1-13.042,5.374l-.161.187c-.391.463-.778.928-1.171,1.4a10.881,10.881,0,0,0,6.373,2.022,10.316,10.316,0,0,0,10.552-10.2v-.087c-.161.109-.324.21-.485.3" transform="translate(-50.198 -97.456)" fill="#ffc20e"/>
      <path id="Tracé_1076" data-name="Tracé 1076" d="M19.384,10.635h0M19,8.736l.023-.01-.015.007-.016.007h-.012ZM.8,7.779a.077.077,0,0,1,.023,0H.849l-.038.01H.8m10.672-5.9a7.967,7.967,0,0,1,6.891,3.778h-.012l-.33-.011-.335-.01c-.223-.006-.446-.01-.67-.012h-.669q-.668,0-1.335.018c-.444.013-.887.029-1.329.053s-.884.049-1.324.083L11.7,5.84l-.66.06c-1.763.168-3.519.393-5.259.7-.56.1-1.128.207-1.691.321a7.866,7.866,0,0,1,7.384-5.027m9.706,5.9h0c.011.011.011.014,0,0M23.009,7.5A.27.27,0,0,0,23,7.424l-.011-.074c0-.025-.008-.048-.015-.074a1.473,1.473,0,0,0-.106-.309,1.6,1.6,0,0,0-.152-.256,1.949,1.949,0,0,0-.326-.344,1.106,1.106,0,0,0-.124-.093c-.04-.025-.1-.076-.15-.107L22.1,6.156a.869.869,0,0,0-.26-.12c-.242-.067-.485-.121-.727-.165A10.5,10.5,0,0,0,11.541,0,10.49,10.49,0,0,0,1.275,7.594h-.01l-.633.194L.558,7.81a.782.782,0,0,0-.422.315.754.754,0,0,0-.12.325.77.77,0,0,0,.673.857.882.882,0,0,0,.161.007.857.857,0,0,0,.1-.008h.03l.05-.008,1.084.093L3.5,9.5h.034l2.84.237a.41.41,0,0,0,.187-.031.4.4,0,0,0-.078-.755h0l-.414-.084-.976-.193H5.072L6.1,8.519c1.707-.254,3.416-.48,5.131-.643l.643-.059.644-.053c.431-.035.86-.069,1.289-.1.858-.06,1.716-.108,2.57-.133l.32-.008.32-.006h.96l.325.007.654.009c.086,0,.171,0,.255.006.336.009.663.026.977.06.2.021.389.047.576.082l.126.026c-.02.016-.038.032-.059.047a4.809,4.809,0,0,1-.7.447c-.211.113-.437.22-.675.33l-.163.074-.169.076-.036.007c-.03.007-.061.016-.088.025l-.041.014-.036.015h-.007l-.023.009-.024.011-.013.006-.027.011-.21.093-.052.022-.056.023-.1.046c-.148.062-.3.12-.446.18l-.225.086-.113.043-.113.042c-.3.112-.606.22-.913.326s-.617.205-.934.306-.626.2-.942.293l-.95.287-.118.035-.118.034-.234.067-.475.134c-.318.093-.635.176-.953.261q-.675.181-1.352.345c-.2.049-.4.093-.6.144.213-.222.429-.442.654-.654h0a.992.992,0,0,0,.137-.166A1.018,1.018,0,0,0,10.419,9.3a1.048,1.048,0,0,0-1.443.29c-.2.3-.412.587-.628.874s-.43.553-.654.833-.453.56-.685.829c-.116.137-.233.273-.35.408l-.354.405q-.711.806-1.452,1.581l-.141.145a8.513,8.513,0,0,1-1.24-4.483c0-.071,0-.141,0-.211l-.348-.029L1.63,9.821.947,9.763c0,.12-.007.24-.007.361A9.906,9.906,0,0,0,3.088,16.3a1.019,1.019,0,0,0,.26,1.274,1.047,1.047,0,0,0,1.095.139,1.027,1.027,0,0,0,.368-.28l.006-.007c.359-.432.712-.856,1.064-1.277l.346-.411q.7-.834,1.409-1.655l.187-.213a1.037,1.037,0,0,0,.61.078c1.347-.236,2.678-.543,3.989-.891.328-.088.654-.177.981-.269l.488-.14.247-.072.123-.035.121-.037.484-.148.483-.15q.482-.151.968-.31c.646-.213,1.294-.443,1.936-.7l.12-.048.12-.049.24-.1c.16-.069.319-.135.478-.207l.119-.053.06-.027.062-.028.142-.067.028-.012.057-.015a1.227,1.227,0,0,0,.152-.056l.03-.014h.007l.012-.007.05-.024.226-.11c.305-.15.625-.31.948-.5a6.806,6.806,0,0,0,.934-.642l.025-.021c.078-.064.153-.132.228-.2.036-.035.074-.07.11-.106l.054-.055.061-.064.031-.033.043-.05.037-.047c.011-.015.023-.029.035-.045a2.076,2.076,0,0,0,.14-.2,1.906,1.906,0,0,0,.114-.24,1.694,1.694,0,0,0,.079-.28,1.519,1.519,0,0,0,.026-.314.459.459,0,0,0,0-.08" transform="translate(-0.009)" fill="#ffc20e"/>
    </g>
  </g>
</svg>
