<svg id="left-quote-svgrepo-com" xmlns="http://www.w3.org/2000/svg" width="60" height="auto" viewBox="0 0 123.961 109.305">
  <path id="Path_1096" data-name="Path 1096" d="M3.561,29.032a5.96,5.96,0,0,1-3-8l4.9-10.3a5.978,5.978,0,0,1,7.8-2.9,68.894,68.894,0,0,1,21.6,14,52.249,52.249,0,0,1,14.5,22.9c2.6,8.6,4,20.3,4,35.2v30.7a6.018,6.018,0,0,1-6,6H8.061a6.018,6.018,0,0,1-6-6v-39.3a6.017,6.017,0,0,1,6-6h18.8c-.2-10.1-2.6-18.2-7-24.3C16.261,36.133,10.861,32.133,3.561,29.032Z" transform="translate(70.6 -7.328)" fill="#242529"/>
  <path id="Path_1097" data-name="Path 1097" d="M74.261,29.032a5.961,5.961,0,0,1-3-8l4.9-10.2a5.979,5.979,0,0,1,7.8-2.9,72.439,72.439,0,0,1,21.5,13.9,53.37,53.37,0,0,1,14.6,23q3.9,12.6,3.9,35.1v30.7a6.018,6.018,0,0,1-6,6h-39.3a6.018,6.018,0,0,1-6-6v-39.3a6.017,6.017,0,0,1,6-6h18.9c-.2-10.1-2.6-18.2-7-24.3C86.961,36.133,81.561,32.133,74.261,29.032Z" transform="translate(-70.7 -7.328)" fill="#242529"/>
</svg>
