<svg xmlns="http://www.w3.org/2000/svg" width="38" height="38" viewBox="0 0 38 38">
  <path id="apps" d="M53.115,58.231a5.115,5.115,0,1,1,5.115-5.115A5.115,5.115,0,0,1,53.115,58.231Zm13.885,0a5.115,5.115,0,1,1,5.115-5.115A5.115,5.115,0,0,1,67,58.231Zm13.885,0A5.115,5.115,0,1,1,86,53.115,5.115,5.115,0,0,1,80.885,58.231ZM53.115,72.115A5.115,5.115,0,1,1,58.231,67,5.115,5.115,0,0,1,53.115,72.115Zm13.885,0A5.115,5.115,0,1,1,72.115,67,5.115,5.115,0,0,1,67,72.115Zm13.885,0A5.115,5.115,0,1,1,86,67a5.115,5.115,0,0,1-5.115,5.115ZM53.115,86a5.115,5.115,0,1,1,5.115-5.115A5.115,5.115,0,0,1,53.115,86ZM67,86a5.115,5.115,0,1,1,5.115-5.115A5.115,5.115,0,0,1,67,86Zm13.885,0A5.115,5.115,0,1,1,86,80.885,5.115,5.115,0,0,1,80.885,86Z" transform="translate(-48 -48)" fill="#fff"/>
</svg>
