<svg xmlns="http://www.w3.org/2000/svg" width="39.134" height="43" viewBox="0 0 39.134 43">
  <g id="store" transform="translate(-5.989 -4)">
    <g id="solid" transform="translate(0 -1)">
      <path id="Tracé_1084" data-name="Tracé 1084" d="M20.754,8.9a5.852,5.852,0,0,1,5.852,5.852h3.9a9.754,9.754,0,1,0-19.508,0h3.9A5.852,5.852,0,0,1,20.754,8.9Z" transform="translate(4.802 0)" fill="#fff"/>
      <path id="Tracé_1085" data-name="Tracé 1085" d="M43.89,15.477A5.865,5.865,0,0,0,37.909,10h-2.58v3.911a1.955,1.955,0,1,1-3.909,0V10H19.693v3.911a1.955,1.955,0,1,1-3.909,0V10H13.2a5.865,5.865,0,0,0-5.981,5.476L6.011,32.823a9.586,9.586,0,0,0,2.6,7.236,10.2,10.2,0,0,0,7.427,3.188H35.075a10.18,10.18,0,0,0,7.408-3.188A9.586,9.586,0,0,0,45.1,32.823Z" transform="translate(0 4.753)" fill="#fff"/>
    </g>
  </g>
</svg>
