<svg xmlns="http://www.w3.org/2000/svg" width="22.001" height="22" viewBox="0 0 22.001 22">
  <path id="ticket" d="M37.737,23.583l-2.023-2.023a.917.917,0,0,0-1.238-.046,1.407,1.407,0,0,1-1.984-1.983.917.917,0,0,0-.046-1.238l-2.025-2.025a.913.913,0,0,0-1.289,0l-3.225,3.224a1.828,1.828,0,0,0-.439.71.353.353,0,0,1-.221.221,1.823,1.823,0,0,0-.71.439l-8.269,8.269a.913.913,0,0,0,0,1.289l2.025,2.023a.917.917,0,0,0,1.238.046,1.407,1.407,0,0,1,1.984,1.984.917.917,0,0,0,.046,1.238l2.023,2.023a.913.913,0,0,0,1.289,0l8.269-8.269a1.825,1.825,0,0,0,.439-.71.352.352,0,0,1,.222-.222,1.826,1.826,0,0,0,.71-.439l3.224-3.225a.913.913,0,0,0,0-1.288ZM27.269,22.224a.733.733,0,0,1-1.037,0L25.7,21.7a.733.733,0,1,1,1.037-1.037l.528.527A.733.733,0,0,1,27.269,22.224Zm2.017,2.017a.733.733,0,0,1-1.037,0l-.5-.5A.733.733,0,1,1,28.782,22.7l.5.5a.733.733,0,0,1,0,1.039ZM31.3,26.258a.733.733,0,0,1-1.037,0l-.5-.5A.733.733,0,1,1,30.8,24.717l.5.5a.733.733,0,0,1,0,1.039ZM33.339,28.3a.733.733,0,0,1-1.037,0l-.524-.527a.733.733,0,1,1,1.04-1.035l.525.527a.733.733,0,0,1,0,1.037Z" transform="translate(-16.002 -16.002)" fill="#fff"/>
</svg>
