<svg xmlns="http://www.w3.org/2000/svg" width="23.533" height="26.067" viewBox="0 0 23.533 26.067">
  <g id="trash-2" transform="translate(1 1)">
    <path id="Shape" d="M0,0H21.533" transform="translate(0 4.813)" fill="none" stroke="#fff" stroke-linecap="round" stroke-linejoin="round" stroke-miterlimit="10" stroke-width="2"/>
    <path id="Path" d="M16.748,0V16.847a2.4,2.4,0,0,1-2.393,2.407H2.393A2.4,2.4,0,0,1,0,16.847V0" transform="translate(2.393 4.813)" fill="none" stroke="#fff" stroke-linecap="round" stroke-linejoin="round" stroke-miterlimit="10" stroke-width="2"/>
    <path id="Path-2" data-name="Path" d="M0,4.813V2.407A2.4,2.4,0,0,1,2.393,0H7.178A2.4,2.4,0,0,1,9.57,2.407V4.813" transform="translate(5.981)" fill="none" stroke="#fff" stroke-linecap="round" stroke-linejoin="round" stroke-miterlimit="10" stroke-width="2"/>
    <path id="Shape-2" data-name="Shape" d="M0,0V7.22" transform="translate(8.374 10.83)" fill="none" stroke="#fff" stroke-linecap="round" stroke-linejoin="round" stroke-miterlimit="10" stroke-width="2"/>
    <path id="Shape-3" data-name="Shape" d="M0,0V7.22" transform="translate(13.159 10.83)" fill="none" stroke="#fff" stroke-linecap="round" stroke-linejoin="round" stroke-miterlimit="10" stroke-width="2"/>
  </g>
</svg>
