<svg xmlns="http://www.w3.org/2000/svg" width="30.249" height="24.571" viewBox="0 0 30.249 24.571">
  <path id="Shape" d="M30.249,2.907a12.392,12.392,0,0,1-3.563.977A6.231,6.231,0,0,0,29.413.454,12.51,12.51,0,0,1,25.47,1.96,6.21,6.21,0,0,0,14.9,7.617,17.617,17.617,0,0,1,2.108,1.134a6.212,6.212,0,0,0,1.92,8.283,6.206,6.206,0,0,1-2.811-.779v.078A6.211,6.211,0,0,0,6.194,14.8a6.285,6.285,0,0,1-1.635.217A5.956,5.956,0,0,1,3.391,14.9a6.208,6.208,0,0,0,5.8,4.31A12.45,12.45,0,0,1,1.48,21.864,13.188,13.188,0,0,1,0,21.779a17.54,17.54,0,0,0,9.511,2.792c11.415,0,17.654-9.455,17.654-17.654l-.021-.8A12.391,12.391,0,0,0,30.249,2.907Z" fill="#fff"/>
</svg>
