<svg xmlns="http://www.w3.org/2000/svg" xmlns:xlink="http://www.w3.org/1999/xlink" width="36" height="36" viewBox="0 0 36 36">
  <defs>
    <clipPath id="clip-path">
      <rect id="Rectangle_846" data-name="Rectangle 846" width="36" height="36" transform="translate(1586 -292)" fill="#fff"/>
    </clipPath>
  </defs>
  <g id="Groupe_de_masques_37" data-name="Groupe de masques 37" transform="translate(-1586 292)" clip-path="url(#clip-path)">
    <path id="cloud-upload" d="M33.3,14.766a9.332,9.332,0,0,0-3.471-1.555,1.133,1.133,0,0,1-.857-.859,11.623,11.623,0,0,0-3.464-6.126A11.066,11.066,0,0,0,18,3.36,10.432,10.432,0,0,0,8.407,9.34a1.125,1.125,0,0,1-.8.624,10.518,10.518,0,0,0-4.875,2.329A7.909,7.909,0,0,0,0,18.379,8.143,8.143,0,0,0,2.868,24.62a10.2,10.2,0,0,0,6.694,2.365h7.313V16.2l-2.58,2.58a1.125,1.125,0,0,1-1.628-.039,1.146,1.146,0,0,1,.06-1.574L17.2,12.69a1.125,1.125,0,0,1,1.59,0l4.478,4.476a1.147,1.147,0,0,1,.027,1.611,1.125,1.125,0,0,1-1.595,0L19.125,16.2V26.985h8.719A9.227,9.227,0,0,0,33.5,25.244,6.425,6.425,0,0,0,36,19.982,6.306,6.306,0,0,0,33.3,14.766ZM16.875,31.515a1.125,1.125,0,1,0,2.25,0v-4.53h-2.25Z" transform="translate(1586 -292)" fill="#fff"/>
  </g>
</svg>
