<svg xmlns="http://www.w3.org/2000/svg" width="43" height="36.25" viewBox="0 0 43 36.25">
  <g id="videos" transform="translate(-5 -6.978)">
    <g id="solid">
      <path id="Tracé_1081" data-name="Tracé 1081" d="M16.618,9.373A28.515,28.515,0,0,1,12.4,7.7h-.174a4.464,4.464,0,0,0-4.628,0A5.338,5.338,0,0,0,5,12.226v25.6a5.345,5.345,0,0,0,2.595,4.682,4.464,4.464,0,0,0,4.628,0h.155a29.682,29.682,0,0,1,4.241-1.829Z" transform="translate(0 0.075)" fill="#fff"/>
      <path id="Tracé_1082" data-name="Tracé 1082" d="M30.023,7.625a4.464,4.464,0,0,0-4.628,0h-.155A29.684,29.684,0,0,1,21,9.453v31.3a28.516,28.516,0,0,1,4.221,1.668H25.4a4.491,4.491,0,0,0,2.382.763,4.553,4.553,0,0,0,2.246-.6A5.344,5.344,0,0,0,32.618,37.9v-25.6a5.344,5.344,0,0,0-2.595-4.681Z" transform="translate(15.381 0)" fill="#fff"/>
      <path id="Tracé_1083" data-name="Tracé 1083" d="M24.618,8.68A31.984,31.984,0,0,1,13,8.68V38.34a31.984,31.984,0,0,1,11.618,0Z" transform="translate(7.691 1.593)" fill="#fff"/>
    </g>
  </g>
</svg>
