<svg xmlns="http://www.w3.org/2000/svg" width="256.376" height="205.821" viewBox="0 0 256.376 205.821">
  <g id="Groupe_2426" data-name="Groupe 2426" transform="translate(-184 -800.32)">
    <g id="Groupe_2421" data-name="Groupe 2421" transform="translate(260.518 800.32)">
      <path id="Tracé_1308" data-name="Tracé 1308" d="M397.477,415.843c-.043-9.494,3.6-18.443,7.651-26.862,4.185-8.7,8.95-17.235,11.315-26.668a40.6,40.6,0,0,0,.988-15.936c-.143-.949-1.586-.546-1.443.4,1.45,9.634-1.685,19.229-5.588,27.918-3.871,8.616-8.7,16.813-11.717,25.8a47.646,47.646,0,0,0-2.7,15.351.749.749,0,0,0,1.5,0Z" transform="translate(-364.478 -257.751)" fill="#313134"/>
      <path id="Tracé_1409" data-name="Tracé 1409" d="M1.324,66.57c-.038-9.028,3.184-17.537,6.765-25.543,3.7-8.273,7.914-16.389,10-25.358A41.425,41.425,0,0,0,18.968.515c-.126-.9-1.4-.519-1.276.378,1.282,9.161-1.49,18.285-4.941,26.547C9.327,35.635,5.06,43.429,2.389,51.973A48.382,48.382,0,0,0,0,66.57a.686.686,0,0,0,.662.688.686.686,0,0,0,.662-.688Z" transform="translate(31.064 114.543) rotate(-52)" fill="#313134"/>
      <ellipse id="Ellipse_10" data-name="Ellipse 10" cx="8.616" cy="8.616" rx="8.616" ry="8.616" transform="translate(40.227 158.815)" fill="#02020f"/>
      <path id="Tracé_1346" data-name="Tracé 1346" d="M422.707,508.479a.958.958,0,0,1-.767-.383l-2.351-3.134a.958.958,0,0,1,1.534-1.15l1.538,2.05,3.95-5.925A.958.958,0,1,1,428.206,501l-4.7,7.052a.959.959,0,0,1-.771.427Z" transform="translate(-375.04 -336.563)" fill="#fff"/>
      <ellipse id="Ellipse_11" data-name="Ellipse 11" cx="8.616" cy="8.616" rx="8.616" ry="8.616" transform="translate(56.821 158.815)" fill="#02020f"/>
      <path id="Tracé_1347" data-name="Tracé 1347" d="M450.756,508.479a.958.958,0,0,1-.767-.383l-2.351-3.134a.958.958,0,0,1,1.534-1.15l1.538,2.05,3.95-5.925A.958.958,0,0,1,456.255,501l-4.7,7.052a.959.959,0,0,1-.771.426Z" transform="translate(-386.494 -336.563)" fill="#fff"/>
      <ellipse id="Ellipse_12" data-name="Ellipse 12" cx="8.616" cy="8.616" rx="8.616" ry="8.616" transform="translate(48.299 144.912)" fill="#02020f"/>
      <path id="Tracé_1348" data-name="Tracé 1348" d="M436.352,484.979a.958.958,0,0,1-.767-.383l-2.351-3.134a.958.958,0,0,1,1.534-1.15l1.538,2.05,3.95-5.925a.958.958,0,1,1,1.595,1.063l-4.7,7.052a.959.959,0,0,1-.771.427Z" transform="translate(-380.613 -326.966)" fill="#fff"/>
      <path id="Tracé_1349" data-name="Tracé 1349" d="M446.567,484.577l-1.272.127L439.016,501.3H404.932L398.653,484.7l-1.272-.127a2.922,2.922,0,0,0-3.212,2.907V525.1a11.182,11.182,0,0,0,11.182,11.182H438.6A11.182,11.182,0,0,0,449.779,525.1V487.484a2.922,2.922,0,0,0-3.212-2.907Z" transform="translate(-364.929 -330.458)" fill="#313134"/>
      <g id="Groupe_2416" data-name="Groupe 2416" transform="translate(0)">
        <path id="Tracé_1354" data-name="Tracé 1354" d="M338.784,581.047c0,50.09-52.514,74.058-52.514,74.058s-53.053-23.968-54.13-74.058c-.633-29.442,23.873-53.322,53.322-53.322A53.322,53.322,0,0,1,338.784,581.047Z" transform="translate(-232.128 -527.725)" fill="#ce181e"/>
        <path id="Tracé_1355" data-name="Tracé 1355" d="M141.739,554.66H106.191l-4.309-17.235h44.166Z" transform="translate(-69.823 -424.318)" fill="#313134"/>
        <path id="Tracé_1357" data-name="Tracé 1357" d="M132.858,559.268h-13.58l-1.558-2.449h16.7Z" transform="translate(-71.926 -426.893)" fill="#313134"/>
        <path id="Tracé_1358" data-name="Tracé 1358" d="M300.735,640.642l-.329-.427c15.56-12,34.108-32.555,34.108-62.344a52.98,52.98,0,0,0-32.4-48.883l.21-.5a53.517,53.517,0,0,1,32.731,49.379C335.052,607.879,316.39,628.569,300.735,640.642Z" transform="translate(-241.194 -527.827)" fill="#313134"/>
        <path id="Tracé_1359" data-name="Tracé 1359" d="M280.86,640.666l-.329-.427c15.56-12,34.108-32.555,34.108-62.344a53.042,53.042,0,0,0-32.033-48.726l.214-.494a53.58,53.58,0,0,1,32.358,49.22C315.178,607.9,296.516,628.594,280.86,640.666Z" transform="translate(-238.555 -527.851)" fill="#313134"/>
        <path id="Tracé_1360" data-name="Tracé 1360" d="M301.091,640.666c-15.656-12.073-34.318-32.763-34.318-62.771a53.58,53.58,0,0,1,32.359-49.22l.214.494A53.042,53.042,0,0,0,267.312,577.9c0,29.789,18.548,50.345,34.108,62.344Z" transform="translate(-236.728 -527.851)" fill="#313134"/>
        <path id="Tracé_1361" data-name="Tracé 1361" d="M281.217,640.628c-15.656-12.073-34.318-32.763-34.318-62.771a53.48,53.48,0,0,1,32.95-49.471l.208.5a52.943,52.943,0,0,0-32.619,48.974c0,29.789,18.548,50.345,34.108,62.344Z" transform="translate(-234.089 -527.813)" fill="#313134"/>
        <rect id="Rectangle_877" data-name="Rectangle 877" width="0.539" height="113.107" transform="translate(53.065)" fill="#313134"/>
      </g>
      <rect id="Rectangle_879" data-name="Rectangle 879" width="18" height="3" rx="1.5" transform="translate(48.238 180.68)" fill="#02020f" opacity="0.518"/>
    </g>
    <g id="Groupe_2422" data-name="Groupe 2422" transform="translate(184 848.028)">
      <path id="Tracé_1308-2" data-name="Tracé 1308" d="M396.45,367.8a19.528,19.528,0,0,1,2.4-8.427,44.855,44.855,0,0,0,3.55-8.366,12.736,12.736,0,0,0,.31-5c-.045-.3-.5-.171-.453.125.455,3.023-.529,6.033-1.753,8.759-1.214,2.7-2.729,5.275-3.676,8.094a14.948,14.948,0,0,0-.848,4.816.235.235,0,0,0,.47,0Z" transform="translate(-386.097 -318.201)" fill="#313134"/>
      <path id="Tracé_1409-2" data-name="Tracé 1409" d="M.415,20.885a19.637,19.637,0,0,1,2.122-8.014A44.441,44.441,0,0,0,5.677,4.916,13,13,0,0,0,5.951.162c-.04-.283-.44-.163-.4.119A16.109,16.109,0,0,1,4,8.609c-1.074,2.571-2.413,5.016-3.25,7.7A15.179,15.179,0,0,0,0,20.885a.215.215,0,0,0,.208.216.215.215,0,0,0,.208-.216Z" transform="translate(9.746 35.936) rotate(-52)" fill="#313134"/>
      <path id="Tracé_1349-2" data-name="Tracé 1349" d="M410.607,484.567l-.4.04-1.97,5.206H397.545l-1.97-5.206-.4-.04a.917.917,0,0,0-1.008.912v11.8a3.508,3.508,0,0,0,3.508,3.508h10.431a3.508,3.508,0,0,0,3.508-3.508v-11.8a.917.917,0,0,0-1.008-.912Z" transform="translate(-384.995 -436.215)" fill="#313134"/>
      <g id="Groupe_2416-2" data-name="Groupe 2416" transform="translate(0)">
        <path id="Tracé_1354-2" data-name="Tracé 1354" d="M265.59,544.454c0,15.715-16.475,23.234-16.475,23.234s-16.644-7.519-16.982-23.234a16.729,16.729,0,0,1,33.457,0Z" transform="translate(-232.128 -527.725)" fill="#5d5d5d"/>
        <path id="Tracé_1355-2" data-name="Tracé 1355" d="M114.386,542.832H103.234l-1.352-5.407h13.856Z" transform="translate(-91.824 -501.94)" fill="#313134"/>
        <path id="Tracé_1357-2" data-name="Tracé 1357" d="M122.469,557.587h-4.26l-.489-.768h5.238Z" transform="translate(-103.353 -516.057)" fill="#313134"/>
        <path id="Tracé_1358-2" data-name="Tracé 1358" d="M300.509,563.677l-.1-.134c4.882-3.764,10.7-10.214,10.7-19.559a16.621,16.621,0,0,0-10.166-15.336l.066-.156a16.79,16.79,0,0,1,10.269,15.492C311.276,553.4,305.421,559.889,300.509,563.677Z" transform="translate(-281.829 -528.283)" fill="#313134"/>
        <path id="Tracé_1359-2" data-name="Tracé 1359" d="M280.635,563.81l-.1-.134c4.882-3.765,10.7-10.214,10.7-19.559a16.641,16.641,0,0,0-10.05-15.287l.067-.155A16.81,16.81,0,0,1,291.4,544.117C291.4,553.531,285.546,560.023,280.635,563.81Z" transform="translate(-267.362 -528.417)" fill="#313134"/>
        <path id="Tracé_1360-2" data-name="Tracé 1360" d="M277.54,563.81c-4.912-3.788-10.766-10.279-10.766-19.693a16.81,16.81,0,0,1,10.152-15.442l.067.155a16.641,16.641,0,0,0-10.05,15.287c0,9.346,5.819,15.795,10.7,19.559Z" transform="translate(-257.347 -528.417)" fill="#313134"/>
        <path id="Tracé_1361-2" data-name="Tracé 1361" d="M257.666,563.6c-4.912-3.788-10.766-10.279-10.766-19.693a16.778,16.778,0,0,1,10.337-15.521l.065.156a16.61,16.61,0,0,0-10.234,15.365c0,9.346,5.819,15.795,10.7,19.559Z" transform="translate(-242.88 -528.206)" fill="#313134"/>
        <rect id="Rectangle_877-2" data-name="Rectangle 877" width="0.169" height="35.485" transform="translate(16.648)" fill="#313134"/>
      </g>
      <rect id="Rectangle_879-2" data-name="Rectangle 879" width="5.855" height="0.732" rx="0.366" transform="translate(15.028 56.765)" fill="#02020f" opacity="0.518"/>
    </g>
    <g id="Groupe_2423" data-name="Groupe 2423" transform="translate(193.331 907.274)">
      <path id="Tracé_1406" data-name="Tracé 1406" d="M475.939,574.5a.416.416,0,0,1-.414-.387A14.7,14.7,0,0,0,460.909,560.5c-.443,0-.909.023-1.384.067a.416.416,0,0,1-.4-.207,17.461,17.461,0,0,0-31.931,3.8.414.414,0,0,1-.409.3l-.111,0c-.058,0-.115,0-.173,0a12.315,12.315,0,0,0-12,9.723.416.416,0,0,1-.407.33H386.238a.416.416,0,0,1,0-.832h27.523a13.154,13.154,0,0,1,12.726-10.053,18.292,18.292,0,0,1,33.225-3.9c.409-.032.81-.048,1.2-.048a15.529,15.529,0,0,1,15.445,14.39.416.416,0,0,1-.386.444Z" transform="translate(-385.822 -550.724)" fill="#5d5d5d" stroke="#5d5d5d" strokeWidth="0.5"/>
      <path id="Tracé_1407" data-name="Tracé 1407" d="M494.995,620.805H426.8a.416.416,0,1,1,0-.832h68.19a.416.416,0,0,1,0,.832Z" transform="translate(-409.825 -591.699)" fill="#5d5d5d" stroke="#5d5d5d" strokeWidth="0.5"/>
      <path id="Tracé_1408" data-name="Tracé 1408" d="M434.4,635.571H411.529a.416.416,0,0,1,0-.832H434.4a.416.416,0,0,1,0,.832Z" transform="translate(-400.787 -600.436)" fill="#5d5d5d" stroke="#5d5d5d" strokeWidth="0.5"/>
    </g>
    <g id="Groupe_2424" data-name="Groupe 2424" transform="translate(365.964 912.6)">
      <path id="Tracé_1308-3" data-name="Tracé 1308" d="M396.451,367.859a19.582,19.582,0,0,1,2.407-8.45,44.979,44.979,0,0,0,3.56-8.389,12.77,12.77,0,0,0,.311-5.013c-.045-.3-.5-.172-.454.125.456,3.031-.53,6.049-1.758,8.783-1.218,2.711-2.736,5.289-3.686,8.116a14.989,14.989,0,0,0-.85,4.829.236.236,0,0,0,.471,0Z" transform="translate(-386.07 -318.126)" fill="#313134"/>
      <path id="Tracé_1409-3" data-name="Tracé 1409" d="M.416,20.942a19.69,19.69,0,0,1,2.128-8.035A44.562,44.562,0,0,0,5.692,4.929,13.032,13.032,0,0,0,5.967.162c-.04-.284-.441-.163-.4.119A16.152,16.152,0,0,1,4.011,8.633C2.934,11.21,1.592,13.662.752,16.35A15.22,15.22,0,0,0,0,20.942a.216.216,0,0,0,.208.216.216.216,0,0,0,.208-.216Z" transform="translate(9.772 36.033) rotate(-52)" fill="#313134"/>
      <path id="Tracé_1349-3" data-name="Tracé 1349" d="M410.652,484.567l-.4.04-1.975,5.22H397.554l-1.975-5.22-.4-.04a.919.919,0,0,0-1.011.915v11.832a3.518,3.518,0,0,0,3.518,3.518h10.459a3.518,3.518,0,0,0,3.518-3.518V485.482a.919.919,0,0,0-1.011-.915Z" transform="translate(-384.97 -436.084)" fill="#313134"/>
      <g id="Groupe_2416-3" data-name="Groupe 2416">
        <path id="Tracé_1354-3" data-name="Tracé 1354" d="M265.68,544.5c0,15.757-16.52,23.3-16.52,23.3s-16.689-7.54-17.028-23.3a16.774,16.774,0,0,1,33.548,0Z" transform="translate(-232.128 -527.725)" fill="#5d5d5d"/>
        <path id="Tracé_1355-3" data-name="Tracé 1355" d="M114.42,542.847H103.238l-1.356-5.422h13.894Z" transform="translate(-91.797 -501.844)" fill="#313134"/>
        <path id="Tracé_1357-3" data-name="Tracé 1357" d="M122.482,557.589H118.21l-.49-.771h5.252Z" transform="translate(-103.314 -515.947)" fill="#313134"/>
        <path id="Tracé_1358-3" data-name="Tracé 1358" d="M300.51,563.772l-.1-.134c4.895-3.775,10.73-10.241,10.73-19.612a16.666,16.666,0,0,0-10.193-15.378l.066-.156a16.836,16.836,0,0,1,10.3,15.534C311.305,553.465,305.434,559.974,300.51,563.772Z" transform="translate(-281.779 -528.283)" fill="#313134"/>
        <path id="Tracé_1359-3" data-name="Tracé 1359" d="M280.635,563.906l-.1-.134c4.895-3.775,10.73-10.241,10.73-19.613a16.686,16.686,0,0,0-10.077-15.328l.067-.156a16.856,16.856,0,0,1,10.179,15.484C291.431,553.6,285.56,560.108,280.635,563.906Z" transform="translate(-267.327 -528.416)" fill="#313134"/>
        <path id="Tracé_1360-3" data-name="Tracé 1360" d="M277.569,563.906c-4.925-3.8-10.8-10.307-10.8-19.747a16.855,16.855,0,0,1,10.18-15.484l.067.156a16.686,16.686,0,0,0-10.077,15.328c0,9.371,5.835,15.838,10.73,19.612Z" transform="translate(-257.322 -528.416)" fill="#313134"/>
        <path id="Tracé_1361-3" data-name="Tracé 1361" d="M257.695,563.695c-4.925-3.8-10.8-10.307-10.8-19.747a16.824,16.824,0,0,1,10.365-15.563l.065.156a16.655,16.655,0,0,0-10.261,15.406c0,9.371,5.835,15.838,10.73,19.612Z" transform="translate(-242.869 -528.205)" fill="#313134"/>
        <rect id="Rectangle_877-3" data-name="Rectangle 877" width="0.169" height="35.581" transform="translate(16.693)" fill="#313134"/>
      </g>
      <rect id="Rectangle_879-3" data-name="Rectangle 879" width="5.871" height="0.734" rx="0.367" transform="translate(15.069 56.92)" fill="#02020f" opacity="0.518"/>
    </g>
    <g id="Groupe_2425" data-name="Groupe 2425" transform="translate(363.571 876.203)">
      <path id="Tracé_1372" data-name="Tracé 1372" d="M811.408,456.828a.352.352,0,0,0,.35-.327,12.426,12.426,0,0,1,12.359-11.514c.375,0,.769.019,1.17.057a.352.352,0,0,0,.338-.175,14.765,14.765,0,0,1,27,3.211.35.35,0,0,0,.346.254l.094,0c.049,0,.1,0,.146,0a10.414,10.414,0,0,1,10.148,8.222.351.351,0,0,0,.344.279h23.555a.352.352,0,1,0,0-.7H863.985a11.123,11.123,0,0,0-10.761-8.5,15.468,15.468,0,0,0-28.1-3.3c-.346-.027-.685-.041-1.011-.041a13.132,13.132,0,0,0-13.061,12.168.352.352,0,0,0,.326.375Z" transform="translate(-811.056 -436.724)" fill="#5d5d5d" stroke="#5d5d5d" strokeWidth="0.5"/>
      <path id="Tracé_1373" data-name="Tracé 1373" d="M823.525,506.677h57.662a.352.352,0,0,0,0-.7H823.525a.352.352,0,0,0,0,.7Z" transform="translate(-818.989 -482.065)" fill="#5d5d5d" stroke="#5d5d5d" strokeWidth="0.5"/>
      <path id="Tracé_1374" data-name="Tracé 1374" d="M949.8,521.443h19.338a.352.352,0,1,0,0-.7H949.8a.352.352,0,0,0,0,.7Z" transform="translate(-901.668 -491.733)" fill="#5d5d5d" stroke="#5d5d5d" strokeWidth="0.5"/>
    </g>
  </g>
</svg>
